<svg width="54" height="54" viewBox="0 0 54 54" fill="none" xmlns="http://www.w3.org/2000/svg">
<circle cx="26.5535" cy="26.5105" r="26.5105" fill="#F3F3F3"/>
<path d="M33.6648 20.0827H33.6771M20.7001 14.5264H33.0474C36.457 14.5264 39.2211 17.2904 39.2211 20.7001V33.0474C39.2211 36.457 36.457 39.2211 33.0474 39.2211H20.7001C17.2904 39.2211 14.5264 36.457 14.5264 33.0474V20.7001C14.5264 17.2904 17.2904 14.5264 20.7001 14.5264ZM31.8127 26.0959C31.9651 27.1235 31.7895 28.1729 31.3111 29.095C30.8326 30.0171 30.0756 30.7649 29.1477 31.232C28.2197 31.699 27.1682 31.8616 26.1425 31.6965C25.1169 31.5315 24.1694 31.0472 23.4348 30.3127C22.7002 29.5781 22.216 28.6306 22.0509 27.605C21.8859 26.5793 22.0485 25.5277 22.5155 24.5998C22.9826 23.6719 23.7303 22.9148 24.6524 22.4364C25.5745 21.9579 26.624 21.7824 27.6516 21.9348C28.6998 22.0902 29.6702 22.5787 30.4195 23.3279C31.1688 24.0772 31.6572 25.0477 31.8127 26.0959Z" stroke="#889E8B" stroke-width="2.90526" stroke-linecap="round" stroke-linejoin="round"/>
</svg>
