<svg width="25" height="25" viewBox="0 0 25 25" fill="none" xmlns="http://www.w3.org/2000/svg">
<path d="M7.29199 20.8333H17.7087" stroke="#889E8B" stroke-linecap="round" stroke-linejoin="round"/>
<path d="M10.417 20.8334C16.1462 18.2292 11.2503 14.1667 13.542 10.4167" stroke="#889E8B" stroke-linecap="round" stroke-linejoin="round"/>
<path d="M9.89616 9.79186C11.042 10.6252 11.7712 12.0835 12.292 13.646C10.2087 14.0627 8.64616 14.0627 7.29199 13.3335C6.04199 12.7085 4.89616 11.3544 4.16699 8.95853C7.08366 8.4377 8.75033 8.95853 9.89616 9.79186V9.79186Z" stroke="#889E8B" stroke-linecap="round" stroke-linejoin="round"/>
<path d="M14.6878 6.25008C13.8936 7.49129 13.4941 8.94399 13.5419 10.4167C15.5211 10.3126 16.9794 9.79175 18.0211 8.95841C19.0628 7.91675 19.6878 6.56258 19.7919 4.16675C16.9794 4.27091 15.6253 5.20841 14.6878 6.25008Z" stroke="#889E8B" stroke-linecap="round" stroke-linejoin="round"/>
</svg>
