<svg width="30" height="30" viewBox="0 0 30 30" fill="none" xmlns="http://www.w3.org/2000/svg">
<path d="M9.66088 21C9.54871 21 9.44775 20.9607 9.35801 20.8822C9.27949 20.7925 9.24023 20.6915 9.24023 20.5793V12.57L6.93502 14.3368C6.8565 14.4041 6.77237 14.4377 6.68263 14.4377C6.55924 14.4377 6.44706 14.3704 6.3461 14.2358L5.35335 12.9402C5.29726 12.8505 5.26922 12.7663 5.26922 12.6878C5.26922 12.5308 5.33653 12.413 5.47114 12.3345L9.34118 9.33938C9.46458 9.26086 9.59919 9.22159 9.74501 9.22159H11.8483C11.9717 9.22159 12.0727 9.26086 12.1512 9.33938C12.2297 9.4179 12.269 9.51886 12.269 9.64225V20.5793C12.269 20.6915 12.2297 20.7925 12.1512 20.8822C12.0727 20.9607 11.9717 21 11.8483 21H9.66088ZM19.068 21.1683C17.5199 21.157 16.3477 20.7476 15.5513 19.9399C14.7548 19.1211 14.3229 18.0498 14.2556 16.7261C14.2332 16.1204 14.222 15.5819 14.222 15.1108C14.222 14.6284 14.2332 14.0732 14.2556 13.445C14.3005 12.6037 14.5024 11.8577 14.8614 11.2071C15.2316 10.5453 15.77 10.0236 16.4767 9.64225C17.1834 9.24964 18.0472 9.05333 19.068 9.05333C20.5823 9.06455 21.749 9.47399 22.5678 10.2817C23.3867 11.0893 23.8298 12.1438 23.8971 13.445C23.9195 14.0732 23.9308 14.6284 23.9308 15.1108C23.9308 15.5819 23.9195 16.1204 23.8971 16.7261C23.8186 18.0498 23.3811 19.1211 22.5847 19.9399C21.7882 20.7476 20.616 21.157 19.068 21.1683ZM19.068 18.7285C19.6176 18.7285 20.0271 18.549 20.2963 18.19C20.5767 17.8198 20.7282 17.3038 20.7506 16.642C20.773 16.3167 20.7842 15.7951 20.7842 15.0771C20.7842 14.3592 20.773 13.8488 20.7506 13.546C20.7282 12.9066 20.5823 12.4018 20.3131 12.0316C20.0439 11.6614 19.6288 11.4707 19.068 11.4595C18.5183 11.4707 18.1033 11.6614 17.8228 12.0316C17.5536 12.4018 17.4078 12.9066 17.3853 13.546C17.3741 13.8488 17.3685 14.3592 17.3685 15.0771C17.3685 15.7951 17.3741 16.3167 17.3853 16.642C17.4414 18.033 18.0023 18.7285 19.068 18.7285Z" fill="white"/>
<circle cx="15" cy="15" r="14" stroke="#F3F3F3" stroke-width="2"/>
</svg>
