<svg width="54" height="54" viewBox="0 0 54 54" fill="none" xmlns="http://www.w3.org/2000/svg">
<circle cx="26.532" cy="26.5105" r="26.5105" fill="#F3F3F3"/>
<path fill-rule="evenodd" clip-rule="evenodd" d="M26.3914 14.0206C22.5351 14.2128 18.7713 15.8857 15.9038 18.6821L15.486 19.0895H11.7482C9.69245 19.0895 8.01046 19.1009 8.01046 19.1148C8.01046 19.1288 8.12094 19.2844 8.25594 19.4607C8.67897 20.013 9.43608 21.2658 9.75788 21.9461C10.2411 22.9677 10.2255 22.8751 9.9732 23.2241C9.19412 24.3016 8.57977 25.6388 8.27522 26.9198C7.80695 28.8897 7.94176 31.1656 8.63744 33.0343C10.3878 37.7362 14.9965 40.3931 19.6027 39.3556C21.7505 38.8718 23.6142 37.6346 25.122 35.6917L25.298 35.4649L26.2539 37.4988C26.7797 38.6175 27.2263 39.5327 27.2464 39.5327C27.2665 39.5327 27.7109 38.622 28.2341 37.5089C28.7573 36.3958 29.1963 35.4863 29.2097 35.4877C29.2231 35.4892 29.3533 35.6521 29.4991 35.8497C29.8358 36.3064 30.5793 37.0706 31.0855 37.4804C33.9959 39.8364 37.8139 40.24 41.0858 38.5376C44.3989 36.8137 46.4998 33.2515 46.506 29.3475C46.5091 27.4175 45.9158 25.3933 44.8609 23.734C44.6664 23.4283 44.4769 23.1268 44.4397 23.0643C44.3782 22.9609 44.391 22.9062 44.5805 22.4674C44.9969 21.5027 45.6045 20.414 46.233 19.5065C46.3571 19.3273 46.4587 19.1601 46.4587 19.1351C46.4587 19.1089 44.8682 19.0895 42.7104 19.0895H38.962L38.7716 18.8795C38.4709 18.5479 37.5198 17.713 36.9743 17.3016C33.8754 14.9651 30.2144 13.8301 26.3914 14.0206ZM28.8927 16.6597C30.9782 16.9069 33.1021 17.6957 34.8833 18.8847C35.3737 19.2121 35.4557 19.2944 35.2916 19.2944C35.1148 19.2944 34.0091 19.6076 33.5577 19.7856C31.2517 20.6948 29.3394 22.5061 28.258 24.8055C27.7854 25.8104 27.4247 27.0906 27.3207 28.1327C27.2886 28.4542 27.2579 28.7125 27.2524 28.7067C27.247 28.701 27.2084 28.4169 27.1666 28.0756C26.9365 26.1943 26.2334 24.4382 25.128 22.9834C24.7317 22.462 23.876 21.5839 23.3932 21.2034C22.2738 20.3213 20.9299 19.675 19.5996 19.3794L19.0714 19.2619L19.3587 19.0547C19.7888 18.7447 20.6261 18.2413 21.1029 18.0062C23.5777 16.786 26.173 16.3374 28.8927 16.6597ZM18.8511 21.7862C20.397 22.0495 21.9809 22.9877 23.03 24.2616C23.8696 25.2809 24.4049 26.4165 24.6934 27.7903C24.7816 28.2105 24.7976 28.4472 24.7976 29.3367C24.7976 30.2301 24.7816 30.4651 24.6908 30.9091C24.368 32.4873 23.6626 33.824 22.5684 34.9314C21.6068 35.9044 20.4192 36.5596 19.0438 36.8756C18.3119 37.0438 16.9342 37.0439 16.2012 36.8758C14.7536 36.5439 13.6326 35.9154 12.6109 34.8628C11.8098 34.0375 11.2797 33.2018 10.8962 32.1597C10.2816 30.4897 10.2352 28.6398 10.7649 26.9286C11.5191 24.4922 13.4256 22.5748 15.726 21.9392C16.7659 21.6519 17.7732 21.6026 18.8511 21.7862ZM37.4961 21.7042C40.7713 22.0125 43.3778 24.5335 43.9836 27.979C44.1059 28.674 44.1059 30.0881 43.9837 30.7439C43.5271 33.1945 42.0924 35.1917 40.0265 36.2524C39.1115 36.7222 38.2242 36.9577 37.1839 37.0067C35.1299 37.1035 33.2231 36.3149 31.7656 34.7659C29.8362 32.7154 29.1707 29.7127 30.0281 26.9272C30.3927 25.7428 30.9123 24.8556 31.7846 23.928C33.1434 22.483 34.7813 21.7381 36.7743 21.6589C36.8671 21.6552 37.1919 21.6756 37.4961 21.7042ZM17.1472 26.834C15.927 27.0823 15.0504 28.4048 15.2359 29.7176C15.3765 30.7129 16.0976 31.5612 17.0266 31.8241C18.2723 32.1767 19.6663 31.2854 19.9552 29.9516C20.1467 29.0671 19.8749 28.1109 19.2574 27.4966C18.6757 26.9179 17.9126 26.6784 17.1472 26.834ZM36.3534 26.8525C35.226 27.113 34.3865 28.306 34.4792 29.5161C34.623 31.393 36.4715 32.4686 38.0327 31.5837C38.372 31.3915 38.8369 30.8883 39.009 30.5273C39.7321 29.0098 38.9203 27.2007 37.3584 26.8486C36.9697 26.761 36.7457 26.7619 36.3534 26.8525Z" fill="#889E8B"/>
</svg>
