<svg width="106" height="104" viewBox="0 0 106 104" fill="none" xmlns="http://www.w3.org/2000/svg">
<path fill-rule="evenodd" clip-rule="evenodd" d="M51.7554 45.0277C46.5647 45.2864 41.4985 47.5382 37.6388 51.3023L37.0765 51.8507H32.0452C29.2781 51.8507 27.0141 51.8661 27.0141 51.8849C27.0141 51.9036 27.1628 52.1131 27.3445 52.3504C27.9139 53.0938 28.933 54.7801 29.3662 55.6959C30.0166 57.071 29.9956 56.9463 29.656 57.4161C28.6073 58.8666 27.7804 60.6664 27.3705 62.3908C26.7401 65.0423 26.9216 68.1058 27.858 70.6212C30.2141 76.9502 36.4175 80.5264 42.6177 79.1299C45.5087 78.4787 48.0172 76.8135 50.0468 74.1982L50.2837 73.8929L51.5704 76.6306C52.2781 78.1364 52.8793 79.3684 52.9063 79.3684C52.9333 79.3684 53.5316 78.1425 54.2358 76.6442C54.94 75.1459 55.5309 73.9216 55.5489 73.9236C55.567 73.9256 55.7423 74.1448 55.9384 74.4109C56.3917 75.0256 57.3924 76.0543 58.0738 76.6059C61.9913 79.7771 67.1305 80.3204 71.5346 78.0289C75.9941 75.7084 78.822 70.9136 78.8304 65.6586C78.8345 63.0606 78.0359 60.336 76.6159 58.1025C76.3542 57.6909 76.0991 57.2852 76.049 57.201C75.9662 57.0618 75.9835 56.9882 76.2385 56.3975C76.799 55.099 77.6168 53.6336 78.4628 52.4121C78.6299 52.1709 78.7666 51.9458 78.7666 51.9121C78.7666 51.8768 76.6258 51.8507 73.7213 51.8507H68.6759L68.4196 51.568C68.0149 51.1217 66.7346 49.9979 66.0003 49.4442C61.8291 46.2991 56.9013 44.7713 51.7554 45.0277ZM55.1222 48.5801C57.9294 48.9128 60.7882 49.9746 63.1857 51.5751C63.8459 52.0158 63.9562 52.1266 63.7354 52.1266C63.4974 52.1266 62.0091 52.5482 61.4015 52.7878C58.2975 54.0115 55.7235 56.4497 54.2679 59.5448C53.6318 60.8974 53.1463 62.6206 53.0062 64.0233C52.9631 64.4561 52.9217 64.8038 52.9144 64.796C52.9072 64.7883 52.8551 64.406 52.7989 63.9464C52.4892 61.4141 51.5428 59.0504 50.0548 57.0922C49.5214 56.3903 48.3696 55.2084 47.7197 54.6961C46.213 53.5087 44.404 52.6389 42.6135 52.2409L41.9024 52.0829L42.2892 51.804C42.8681 51.3866 43.9951 50.709 44.6369 50.3926C47.9681 48.7501 51.4614 48.1462 55.1222 48.5801ZM41.606 55.4806C43.6868 55.8351 45.8187 57.098 47.2309 58.8126C48.361 60.1846 49.0815 61.7132 49.4698 63.5624C49.5886 64.128 49.6101 64.4467 49.6101 65.644C49.6101 66.8465 49.5886 67.1629 49.4664 67.7605C49.0318 69.8849 48.0824 71.6841 46.6095 73.1747C45.3152 74.4845 43.7167 75.3664 41.8654 75.7918C40.8801 76.0182 39.0257 76.0184 38.0391 75.7921C36.0906 75.3452 34.5817 74.4992 33.2064 73.0824C32.1281 71.9715 31.4145 70.8467 30.8983 69.4439C30.0711 67.196 30.0086 64.706 30.7216 62.4026C31.7369 59.123 34.3031 56.5422 37.3995 55.6866C38.7992 55.2998 40.1551 55.2335 41.606 55.4806ZM66.7028 55.3703C71.1113 55.7853 74.6197 59.1787 75.4351 63.8164C75.5997 64.752 75.5997 66.6554 75.4352 67.5381C74.8207 70.8368 72.8895 73.5251 70.1088 74.9529C68.8772 75.5853 67.6827 75.9022 66.2825 75.9682C63.5177 76.0985 60.9511 75.037 58.9892 72.952C56.3923 70.1919 55.4964 66.1501 56.6506 62.4007C57.1413 60.8064 57.8407 59.6122 59.0148 58.3636C60.8438 56.4185 63.0484 55.4159 65.7312 55.3093C65.856 55.3043 66.2933 55.3317 66.7028 55.3703ZM39.3124 62.2753C37.67 62.6094 36.4901 64.3897 36.7397 66.1567C36.929 67.4965 37.8996 68.6383 39.1501 68.9922C40.8269 69.4668 42.7032 68.2671 43.0921 66.4716C43.3499 65.2811 42.984 63.994 42.1528 63.1671C41.3698 62.3882 40.3427 62.0658 39.3124 62.2753ZM65.1646 62.3001C63.647 62.6508 62.5171 64.2566 62.6419 65.8854C62.8354 68.4119 65.3236 69.8598 67.425 68.6686C67.8817 68.4099 68.5075 67.7326 68.7391 67.2466C69.7124 65.204 68.6198 62.7688 66.5174 62.2949C65.9941 62.177 65.6927 62.1781 65.1646 62.3001Z" fill="#F3F3F3"/>
<path d="M28.4159 25.5599C27.7409 25.5599 27.2272 25.3786 26.8746 25.0159C26.527 24.6533 26.3407 24.1521 26.3155 23.5124C26.3104 23.3764 26.3079 23.1548 26.3079 22.8475C26.3079 22.5352 26.3104 22.3086 26.3155 22.1675C26.3407 21.5329 26.5295 21.0342 26.8821 20.6715C27.2347 20.3038 27.746 20.12 28.4159 20.12C28.8642 20.12 29.2445 20.2006 29.5568 20.3618C29.8691 20.5179 30.1058 20.7244 30.267 20.9813C30.4282 21.2382 30.5163 21.5127 30.5314 21.8049V21.82C30.5314 21.8603 30.5138 21.8955 30.4785 21.9257C30.4483 21.9509 30.4131 21.9635 30.3728 21.9635H29.9572C29.8565 21.9635 29.7935 21.9056 29.7683 21.7897C29.6827 21.412 29.5291 21.1475 29.3074 20.9964C29.0858 20.8403 28.7886 20.7622 28.4159 20.7622C27.5495 20.7622 27.1012 21.2432 27.071 22.2053C27.066 22.3413 27.0635 22.5503 27.0635 22.8324C27.0635 23.1145 27.066 23.3285 27.071 23.4746C27.1012 24.4367 27.5495 24.9177 28.4159 24.9177C28.7886 24.9177 29.0858 24.8422 29.3074 24.691C29.5341 24.5349 29.6877 24.2679 29.7683 23.8902C29.7834 23.8247 29.8061 23.7794 29.8363 23.7542C29.8665 23.729 29.9068 23.7164 29.9572 23.7164H30.3728C30.4181 23.7164 30.4559 23.7315 30.4861 23.7617C30.5214 23.7869 30.5365 23.8222 30.5314 23.8675C30.5163 24.1647 30.4282 24.4417 30.267 24.6986C30.1058 24.9555 29.8691 25.1645 29.5568 25.3257C29.2445 25.4819 28.8642 25.5599 28.4159 25.5599ZM31.7178 25.4844C31.6674 25.4844 31.6246 25.4693 31.5893 25.439C31.5591 25.4038 31.544 25.361 31.544 25.3106V20.3769C31.544 20.3215 31.5591 20.2786 31.5893 20.2484C31.6246 20.2132 31.6674 20.1955 31.7178 20.1955H34.8382C34.8885 20.1955 34.9288 20.2132 34.9591 20.2484C34.9943 20.2786 35.0119 20.3215 35.0119 20.3769V20.664C35.0119 20.7143 34.9968 20.7572 34.9666 20.7924C34.9364 20.8226 34.8936 20.8378 34.8382 20.8378H32.2693V22.4924H34.6719C34.7223 22.4924 34.7626 22.51 34.7928 22.5453C34.8281 22.5755 34.8457 22.6183 34.8457 22.6737V22.9533C34.8457 23.0037 34.8281 23.0465 34.7928 23.0817C34.7626 23.112 34.7223 23.1271 34.6719 23.1271H32.2693V24.8422H34.8986C34.954 24.8422 34.9968 24.8573 35.0271 24.8875C35.0573 24.9177 35.0724 24.9605 35.0724 25.0159V25.3106C35.0724 25.361 35.0548 25.4038 35.0195 25.439C34.9893 25.4693 34.949 25.4844 34.8986 25.4844H31.7178ZM36.2997 25.4844C36.2494 25.4844 36.2066 25.4693 36.1713 25.439C36.1411 25.4038 36.126 25.361 36.126 25.3106V20.3769C36.126 20.3215 36.1411 20.2786 36.1713 20.2484C36.2066 20.2132 36.2494 20.1955 36.2997 20.1955H38.1433C38.7225 20.1955 39.1759 20.3315 39.5033 20.6035C39.8307 20.8755 39.9944 21.2684 39.9944 21.7822C39.9944 22.165 39.8987 22.4798 39.7073 22.7266C39.5209 22.9734 39.2565 23.1447 38.9139 23.2404L40.0775 25.2502C40.0926 25.2804 40.1001 25.3081 40.1001 25.3333C40.1001 25.3736 40.0825 25.4088 40.0473 25.439C40.017 25.4693 39.9818 25.4844 39.9415 25.4844H39.5788C39.5033 25.4844 39.4428 25.4667 39.3975 25.4315C39.3572 25.3962 39.3194 25.3459 39.2842 25.2804L38.1886 23.3613H36.8664V25.3106C36.8664 25.361 36.8488 25.4038 36.8135 25.439C36.7783 25.4693 36.7354 25.4844 36.6851 25.4844H36.2997ZM38.1131 22.7191C38.8636 22.7191 39.2388 22.4043 39.2388 21.7746C39.2388 21.145 38.8636 20.8302 38.1131 20.8302H36.8664V22.7191H38.1131ZM42.3476 25.4844C42.2972 25.4844 42.2544 25.4693 42.2192 25.439C42.1889 25.4038 42.1738 25.361 42.1738 25.3106V20.868H40.7232C40.6728 20.868 40.63 20.8529 40.5947 20.8226C40.5645 20.7874 40.5494 20.7446 40.5494 20.6942V20.3769C40.5494 20.3265 40.5645 20.2837 40.5947 20.2484C40.63 20.2132 40.6728 20.1955 40.7232 20.1955H44.3649C44.4203 20.1955 44.4631 20.2132 44.4934 20.2484C44.5286 20.2786 44.5463 20.3215 44.5463 20.3769V20.6942C44.5463 20.7446 44.5286 20.7874 44.4934 20.8226C44.4581 20.8529 44.4153 20.868 44.3649 20.868H42.9218V25.3106C42.9218 25.361 42.9042 25.4038 42.8689 25.439C42.8337 25.4693 42.7909 25.4844 42.7405 25.4844H42.3476ZM45.567 25.4844C45.5166 25.4844 45.4738 25.4693 45.4386 25.439C45.4083 25.4038 45.3932 25.361 45.3932 25.3106V20.3693C45.3932 20.3189 45.4083 20.2786 45.4386 20.2484C45.4738 20.2132 45.5166 20.1955 45.567 20.1955H45.9675C46.0178 20.1955 46.0581 20.2132 46.0883 20.2484C46.1236 20.2786 46.1412 20.3189 46.1412 20.3693V25.3106C46.1412 25.361 46.1236 25.4038 46.0883 25.439C46.0581 25.4693 46.0178 25.4844 45.9675 25.4844H45.567ZM47.633 25.4844C47.5826 25.4844 47.5398 25.4693 47.5045 25.439C47.4743 25.4038 47.4592 25.361 47.4592 25.3106V20.3769C47.4592 20.3215 47.4743 20.2786 47.5045 20.2484C47.5398 20.2132 47.5826 20.1955 47.633 20.1955H50.7156C50.771 20.1955 50.8138 20.2132 50.844 20.2484C50.8793 20.2786 50.8969 20.3215 50.8969 20.3769V20.6791C50.8969 20.7295 50.8793 20.7723 50.844 20.8075C50.8138 20.8378 50.771 20.8529 50.7156 20.8529H48.1921V22.6133H50.5645C50.6199 22.6133 50.6627 22.6309 50.6929 22.6662C50.7282 22.6964 50.7458 22.7392 50.7458 22.7946V23.0968C50.7458 23.1472 50.7282 23.19 50.6929 23.2253C50.6577 23.2555 50.6149 23.2706 50.5645 23.2706H48.1921V25.3106C48.1921 25.361 48.1744 25.4038 48.1392 25.439C48.1039 25.4693 48.0611 25.4844 48.0107 25.4844H47.633ZM52.0452 25.4844C51.9949 25.4844 51.9521 25.4693 51.9168 25.439C51.8866 25.4038 51.8715 25.361 51.8715 25.3106V20.3693C51.8715 20.3189 51.8866 20.2786 51.9168 20.2484C51.9521 20.2132 51.9949 20.1955 52.0452 20.1955H52.4457C52.4961 20.1955 52.5364 20.2132 52.5666 20.2484C52.6018 20.2786 52.6195 20.3189 52.6195 20.3693V25.3106C52.6195 25.361 52.6018 25.4038 52.5666 25.439C52.5364 25.4693 52.4961 25.4844 52.4457 25.4844H52.0452ZM55.8414 25.5599C55.1665 25.5599 54.6527 25.3786 54.3001 25.0159C53.9525 24.6533 53.7662 24.1521 53.741 23.5124C53.7359 23.3764 53.7334 23.1548 53.7334 22.8475C53.7334 22.5352 53.7359 22.3086 53.741 22.1675C53.7662 21.5329 53.9551 21.0342 54.3076 20.6715C54.6602 20.3038 55.1715 20.12 55.8414 20.12C56.2897 20.12 56.67 20.2006 56.9823 20.3618C57.2946 20.5179 57.5313 20.7244 57.6925 20.9813C57.8537 21.2382 57.9418 21.5127 57.9569 21.8049V21.82C57.9569 21.8603 57.9393 21.8955 57.9041 21.9257C57.8738 21.9509 57.8386 21.9635 57.7983 21.9635H57.3827C57.282 21.9635 57.219 21.9056 57.1938 21.7897C57.1082 21.412 56.9546 21.1475 56.733 20.9964C56.5113 20.8403 56.2141 20.7622 55.8414 20.7622C54.975 20.7622 54.5268 21.2432 54.4965 22.2053C54.4915 22.3413 54.489 22.5503 54.489 22.8324C54.489 23.1145 54.4915 23.3285 54.4965 23.4746C54.5268 24.4367 54.975 24.9177 55.8414 24.9177C56.2141 24.9177 56.5113 24.8422 56.733 24.691C56.9596 24.5349 57.1132 24.2679 57.1938 23.8902C57.2089 23.8247 57.2316 23.7794 57.2618 23.7542C57.2921 23.729 57.3324 23.7164 57.3827 23.7164H57.7983C57.8436 23.7164 57.8814 23.7315 57.9116 23.7617C57.9469 23.7869 57.962 23.8222 57.9569 23.8675C57.9418 24.1647 57.8537 24.4417 57.6925 24.6986C57.5313 24.9555 57.2946 25.1645 56.9823 25.3257C56.67 25.4819 56.2897 25.5599 55.8414 25.5599ZM58.5627 25.4844C58.5224 25.4844 58.4872 25.4693 58.457 25.439C58.4267 25.4088 58.4116 25.3736 58.4116 25.3333C58.4116 25.293 58.4141 25.2653 58.4192 25.2502L60.2929 20.3618C60.3332 20.2509 60.4138 20.1955 60.5347 20.1955H61.0485C61.1694 20.1955 61.25 20.2509 61.2903 20.3618L63.1565 25.2502L63.1716 25.3333C63.1716 25.3736 63.1565 25.4088 63.1263 25.439C63.096 25.4693 63.0608 25.4844 63.0205 25.4844H62.6351C62.5797 25.4844 62.5369 25.4718 62.5067 25.4466C62.4765 25.4164 62.4563 25.3862 62.4463 25.3559L62.0307 24.2831H59.5525L59.137 25.3559C59.1269 25.3862 59.1042 25.4164 59.069 25.4466C59.0387 25.4718 58.9984 25.4844 58.9481 25.4844H58.5627ZM61.8116 23.6333L60.7916 20.9511L59.7716 23.6333H61.8116ZM64.7484 25.4844C64.6981 25.4844 64.6553 25.4693 64.62 25.439C64.5898 25.4038 64.5747 25.361 64.5747 25.3106V20.868H63.124C63.0736 20.868 63.0308 20.8529 62.9956 20.8226C62.9653 20.7874 62.9502 20.7446 62.9502 20.6942V20.3769C62.9502 20.3265 62.9653 20.2837 62.9956 20.2484C63.0308 20.2132 63.0736 20.1955 63.124 20.1955H66.7658C66.8212 20.1955 66.864 20.2132 66.8942 20.2484C66.9295 20.2786 66.9471 20.3215 66.9471 20.3769V20.6942C66.9471 20.7446 66.9295 20.7874 66.8942 20.8226C66.8589 20.8529 66.8161 20.868 66.7658 20.868H65.3227V25.3106C65.3227 25.361 65.305 25.4038 65.2698 25.439C65.2345 25.4693 65.1917 25.4844 65.1413 25.4844H64.7484ZM69.5874 25.5599C68.9275 25.5599 68.4163 25.3887 68.0536 25.0462C67.696 24.6986 67.5071 24.1773 67.4869 23.4822C67.4819 23.3311 67.4794 23.117 67.4794 22.84C67.4794 22.5629 67.4819 22.3514 67.4869 22.2053C67.5071 21.5253 67.7035 21.009 68.0763 20.6564C68.449 20.2988 68.9527 20.12 69.5874 20.12C70.217 20.12 70.7182 20.2988 71.0909 20.6564C71.4636 21.009 71.6601 21.5253 71.6802 22.2053C71.6903 22.4974 71.6954 22.709 71.6954 22.84C71.6954 22.9659 71.6903 23.18 71.6802 23.4822C71.6601 24.1773 71.4687 24.6986 71.106 25.0462C70.7484 25.3887 70.2422 25.5599 69.5874 25.5599ZM69.5874 24.9177C69.9853 24.9177 70.3026 24.7968 70.5394 24.5551C70.7761 24.3133 70.9045 23.9431 70.9247 23.4444C70.9348 23.1422 70.9398 22.9407 70.9398 22.84C70.9398 22.7291 70.9348 22.5277 70.9247 22.2355C70.9045 21.7369 70.7736 21.3666 70.5318 21.1249C70.2951 20.8831 69.9803 20.7622 69.5874 20.7622C69.1894 20.7622 68.8696 20.8831 68.6278 21.1249C68.3911 21.3666 68.2626 21.7369 68.2425 22.2355C68.2375 22.3816 68.2349 22.5831 68.2349 22.84C68.2349 23.0918 68.2375 23.2933 68.2425 23.4444C68.2626 23.9431 68.3911 24.3133 68.6278 24.5551C68.8696 24.7968 69.1894 24.9177 69.5874 24.9177ZM75.9859 25.5599C75.4621 25.5599 75.0667 25.3887 74.7997 25.0462C74.5327 24.7036 74.3917 24.2705 74.3766 23.7466L74.369 23.5199L74.3766 23.2933C74.3917 22.7745 74.5327 22.3438 74.7997 22.0013C75.0667 21.6537 75.4621 21.48 75.9859 21.48C76.5047 21.48 76.9127 21.6638 77.2099 22.0315V20.2938C77.2099 20.2434 77.225 20.2031 77.2552 20.1729C77.2905 20.1376 77.3333 20.12 77.3837 20.12H77.7463C77.7967 20.12 77.837 20.1376 77.8672 20.1729C77.9025 20.2031 77.9201 20.2434 77.9201 20.2938V25.3106C77.9201 25.361 77.9025 25.4038 77.8672 25.439C77.837 25.4693 77.7967 25.4844 77.7463 25.4844H77.4064C77.356 25.4844 77.3132 25.4693 77.2779 25.439C77.2477 25.4038 77.2326 25.361 77.2326 25.3106V24.9933C76.9404 25.371 76.5249 25.5599 75.9859 25.5599ZM76.1446 24.9479C76.4921 24.9479 76.7515 24.8346 76.9228 24.6079C77.0991 24.3762 77.1948 24.1017 77.2099 23.7844C77.2149 23.729 77.2175 23.6333 77.2175 23.4973C77.2175 23.3562 77.2149 23.258 77.2099 23.2026C77.1998 22.9054 77.1041 22.646 76.9228 22.4244C76.7415 22.2028 76.4821 22.092 76.1446 22.092C75.787 22.092 75.525 22.2028 75.3588 22.4244C75.1976 22.646 75.1095 22.9382 75.0944 23.3008L75.0868 23.5199C75.0868 24.4719 75.4394 24.9479 76.1446 24.9479ZM79.1571 20.8226C79.1068 20.8226 79.064 20.8075 79.0287 20.7773C78.9985 20.7421 78.9834 20.6992 78.9834 20.6489V20.2409C78.9834 20.1905 78.9985 20.1477 79.0287 20.1124C79.064 20.0772 79.1068 20.0595 79.1571 20.0595H79.6331C79.6835 20.0595 79.7263 20.0772 79.7616 20.1124C79.7968 20.1477 79.8145 20.1905 79.8145 20.2409V20.6489C79.8145 20.6992 79.7968 20.7421 79.7616 20.7773C79.7263 20.8075 79.6835 20.8226 79.6331 20.8226H79.1571ZM79.2176 25.4844C79.1672 25.4844 79.1244 25.4693 79.0891 25.439C79.0589 25.4038 79.0438 25.361 79.0438 25.3106V21.7293C79.0438 21.6789 79.0589 21.6386 79.0891 21.6084C79.1244 21.5732 79.1672 21.5555 79.2176 21.5555H79.5803C79.6306 21.5555 79.6709 21.5732 79.7011 21.6084C79.7364 21.6386 79.754 21.6789 79.754 21.7293V25.3106C79.754 25.361 79.7364 25.4038 79.7011 25.439C79.6709 25.4693 79.6306 25.4844 79.5803 25.4844H79.2176ZM23.2311 36.4844C23.167 36.4844 23.1125 36.4619 23.0676 36.4171C23.0227 36.3722 23.0003 36.3177 23.0003 36.2536V29.9935C23.0003 29.923 23.0195 29.8653 23.058 29.8204C23.1029 29.7756 23.1606 29.7531 23.2311 29.7531H27.4621C27.5327 29.7531 27.5904 29.7756 27.6352 29.8204C27.6801 29.8653 27.7025 29.923 27.7025 29.9935V30.6282C27.7025 30.6987 27.6801 30.7564 27.6352 30.8013C27.5904 30.8397 27.5327 30.859 27.4621 30.859H24.2985V32.561H27.2506C27.3211 32.561 27.3788 32.5835 27.4237 32.6283C27.4686 32.6668 27.491 32.7213 27.491 32.7918V33.388C27.491 33.4585 27.4686 33.5162 27.4237 33.5611C27.3788 33.5996 27.3211 33.6188 27.2506 33.6188H24.2985V35.3785H27.5391C27.6096 35.3785 27.6673 35.401 27.7122 35.4458C27.757 35.4907 27.7795 35.5484 27.7795 35.6189V36.2536C27.7795 36.3241 27.757 36.3818 27.7122 36.4267C27.6673 36.4651 27.6096 36.4844 27.5391 36.4844H23.2311ZM31.5222 36.5805C30.6375 36.5805 29.9515 36.353 29.4643 35.8978C28.9835 35.4426 28.7271 34.8016 28.695 33.9746C28.6886 33.8015 28.6854 33.5194 28.6854 33.1284C28.6854 32.7309 28.6886 32.4424 28.695 32.2629C28.7271 31.4423 28.9867 30.8045 29.4739 30.3493C29.9676 29.8878 30.6503 29.657 31.5222 29.657C32.0927 29.657 32.5895 29.7563 33.0126 29.9551C33.4357 30.1474 33.7627 30.4134 33.9935 30.7532C34.2243 31.0866 34.3461 31.4648 34.3589 31.8879V31.9071C34.3589 31.9584 34.3365 32.0033 34.2916 32.0418C34.2531 32.0738 34.2082 32.0898 34.157 32.0898H33.2434C33.1665 32.0898 33.1088 32.0738 33.0703 32.0418C33.0319 32.0097 32.9998 31.9488 32.9742 31.859C32.8716 31.4552 32.7017 31.1731 32.4645 31.0128C32.2273 30.8462 31.91 30.7628 31.5125 30.7628C30.5894 30.7628 30.1086 31.2789 30.0701 32.311C30.0637 32.4841 30.0605 32.7501 30.0605 33.1091C30.0605 33.4681 30.0637 33.7406 30.0701 33.9265C30.1086 34.9586 30.5894 35.4747 31.5125 35.4747C31.91 35.4747 32.2273 35.3913 32.4645 35.2247C32.7081 35.058 32.878 34.7759 32.9742 34.3785C32.9934 34.2887 33.0223 34.2278 33.0607 34.1958C33.1056 34.1637 33.1665 34.1477 33.2434 34.1477H34.157C34.2147 34.1477 34.2627 34.1669 34.3012 34.2054C34.3461 34.2438 34.3653 34.2919 34.3589 34.3496C34.3461 34.7727 34.2243 35.1542 33.9935 35.4939C33.7627 35.8273 33.4357 36.0933 33.0126 36.2921C32.5895 36.4844 32.0927 36.5805 31.5222 36.5805ZM38.0956 36.5805C37.211 36.5805 36.525 36.353 36.0378 35.8978C35.557 35.4426 35.3006 34.8016 35.2685 33.9746C35.2621 33.8015 35.2589 33.5194 35.2589 33.1284C35.2589 32.7309 35.2621 32.4424 35.2685 32.2629C35.3006 31.4423 35.5602 30.8045 36.0474 30.3493C36.541 29.8878 37.2238 29.657 38.0956 29.657C38.6662 29.657 39.163 29.7563 39.5861 29.9551C40.0092 30.1474 40.3362 30.4134 40.567 30.7532C40.7978 31.0866 40.9196 31.4648 40.9324 31.8879V31.9071C40.9324 31.9584 40.9099 32.0033 40.8651 32.0418C40.8266 32.0738 40.7817 32.0898 40.7304 32.0898H39.8169C39.74 32.0898 39.6823 32.0738 39.6438 32.0418C39.6054 32.0097 39.5733 31.9488 39.5477 31.859C39.4451 31.4552 39.2752 31.1731 39.038 31.0128C38.8008 30.8462 38.4835 30.7628 38.086 30.7628C37.1629 30.7628 36.6821 31.2789 36.6436 32.311C36.6372 32.4841 36.634 32.7501 36.634 33.1091C36.634 33.4681 36.6372 33.7406 36.6436 33.9265C36.6821 34.9586 37.1629 35.4747 38.086 35.4747C38.4835 35.4747 38.8008 35.3913 39.038 35.2247C39.2816 35.058 39.4515 34.7759 39.5477 34.3785C39.5669 34.2887 39.5957 34.2278 39.6342 34.1958C39.6791 34.1637 39.74 34.1477 39.8169 34.1477H40.7304C40.7881 34.1477 40.8362 34.1669 40.8747 34.2054C40.9196 34.2438 40.9388 34.2919 40.9324 34.3496C40.9196 34.7727 40.7978 35.1542 40.567 35.4939C40.3362 35.8273 40.0092 36.0933 39.5861 36.2921C39.163 36.4844 38.6662 36.5805 38.0956 36.5805ZM42.3036 36.4844C42.2395 36.4844 42.185 36.4619 42.1401 36.4171C42.0952 36.3722 42.0728 36.3177 42.0728 36.2536V29.9935C42.0728 29.923 42.092 29.8653 42.1305 29.8204C42.1754 29.7756 42.2331 29.7531 42.3036 29.7531H46.5346C46.6052 29.7531 46.6629 29.7756 46.7077 29.8204C46.7526 29.8653 46.775 29.923 46.775 29.9935V30.6282C46.775 30.6987 46.7526 30.7564 46.7077 30.8013C46.6629 30.8397 46.6052 30.859 46.5346 30.859H43.371V32.561H46.3231C46.3936 32.561 46.4513 32.5835 46.4962 32.6283C46.541 32.6668 46.5635 32.7213 46.5635 32.7918V33.388C46.5635 33.4585 46.541 33.5162 46.4962 33.5611C46.4513 33.5996 46.3936 33.6188 46.3231 33.6188H43.371V35.3785H46.6116C46.6821 35.3785 46.7398 35.401 46.7847 35.4458C46.8295 35.4907 46.852 35.5484 46.852 35.6189V36.2536C46.852 36.3241 46.8295 36.3818 46.7847 36.4267C46.7398 36.4651 46.6821 36.4844 46.6116 36.4844H42.3036ZM48.2854 36.4844C48.2213 36.4844 48.1668 36.4619 48.122 36.4171C48.0771 36.3722 48.0547 36.3177 48.0547 36.2536V29.9839C48.0547 29.9134 48.0771 29.8589 48.122 29.8204C48.1668 29.7756 48.2213 29.7531 48.2854 29.7531H49.1797C49.2502 29.7531 49.3047 29.7756 49.3432 29.8204C49.3881 29.8589 49.4105 29.9134 49.4105 29.9839V35.3401H52.4588C52.5293 35.3401 52.587 35.3625 52.6319 35.4074C52.6768 35.4523 52.6992 35.5099 52.6992 35.5805V36.2536C52.6992 36.3241 52.6768 36.3818 52.6319 36.4267C52.587 36.4651 52.5293 36.4844 52.4588 36.4844H48.2854ZM53.8635 36.4844C53.7994 36.4844 53.7449 36.4619 53.7 36.4171C53.6552 36.3722 53.6327 36.3177 53.6327 36.2536V29.9839C53.6327 29.9134 53.6552 29.8589 53.7 29.8204C53.7449 29.7756 53.7994 29.7531 53.8635 29.7531H54.7578C54.8283 29.7531 54.8828 29.7756 54.9213 29.8204C54.9662 29.8589 54.9886 29.9134 54.9886 29.9839V35.3401H58.0369C58.1074 35.3401 58.1651 35.3625 58.21 35.4074C58.2548 35.4523 58.2773 35.5099 58.2773 35.5805V36.2536C58.2773 36.3241 58.2548 36.3818 58.21 36.4267C58.1651 36.4651 58.1074 36.4844 58.0369 36.4844H53.8635ZM59.4416 36.4844C59.3775 36.4844 59.323 36.4619 59.2781 36.4171C59.2332 36.3722 59.2108 36.3177 59.2108 36.2536V29.9935C59.2108 29.923 59.23 29.8653 59.2685 29.8204C59.3134 29.7756 59.3711 29.7531 59.4416 29.7531H63.6726C63.7432 29.7531 63.8009 29.7756 63.8457 29.8204C63.8906 29.8653 63.913 29.923 63.913 29.9935V30.6282C63.913 30.6987 63.8906 30.7564 63.8457 30.8013C63.8009 30.8397 63.7432 30.859 63.6726 30.859H60.509V32.561H63.4611C63.5316 32.561 63.5893 32.5835 63.6342 32.6283C63.6791 32.6668 63.7015 32.7213 63.7015 32.7918V33.388C63.7015 33.4585 63.6791 33.5162 63.6342 33.5611C63.5893 33.5996 63.5316 33.6188 63.4611 33.6188H60.509V35.3785H63.7496C63.8201 35.3785 63.8778 35.401 63.9227 35.4458C63.9675 35.4907 63.99 35.5484 63.99 35.6189V36.2536C63.99 36.3241 63.9675 36.3818 63.9227 36.4267C63.8778 36.4651 63.8201 36.4844 63.7496 36.4844H59.4416ZM65.4235 36.4844C65.3593 36.4844 65.3049 36.4619 65.26 36.4171C65.2151 36.3722 65.1927 36.3177 65.1927 36.2536V29.9935C65.1927 29.923 65.2119 29.8653 65.2504 29.8204C65.2952 29.7756 65.3529 29.7531 65.4235 29.7531H66.1639C66.2408 29.7531 66.2985 29.7692 66.337 29.8012C66.3754 29.8269 66.4107 29.8621 66.4428 29.907L69.2122 34.215V29.9935C69.2122 29.923 69.2314 29.8653 69.2699 29.8204C69.3148 29.7756 69.3724 29.7531 69.443 29.7531H70.2507C70.3212 29.7531 70.3789 29.7756 70.4238 29.8204C70.4687 29.8653 70.4911 29.923 70.4911 29.9935V36.244C70.4911 36.3145 70.4687 36.3722 70.4238 36.4171C70.3789 36.4619 70.3244 36.4844 70.2603 36.4844H69.5103C69.4013 36.4844 69.3083 36.4331 69.2314 36.3305L66.4716 32.1187V36.2536C66.4716 36.3241 66.4492 36.3818 66.4043 36.4267C66.3594 36.4651 66.3017 36.4844 66.2312 36.4844H65.4235ZM71.8473 36.4844C71.7768 36.4844 71.7191 36.4619 71.6742 36.4171C71.6357 36.3722 71.6165 36.3145 71.6165 36.244V35.5708C71.6165 35.4619 71.6389 35.3785 71.6838 35.3208C71.7287 35.2567 71.7543 35.2215 71.7607 35.2151L75.1071 30.8878H71.9434C71.8793 30.8878 71.8248 30.8654 71.78 30.8205C71.7351 30.7756 71.7127 30.7211 71.7127 30.657V29.9935C71.7127 29.923 71.7319 29.8653 71.7704 29.8204C71.8152 29.7756 71.8729 29.7531 71.9434 29.7531H76.5399C76.6104 29.7531 76.6681 29.7756 76.713 29.8204C76.7579 29.8653 76.7803 29.923 76.7803 29.9935V30.657C76.7803 30.7724 76.7387 30.8846 76.6553 30.9936L73.3762 35.3401H76.6457C76.7162 35.3401 76.7739 35.3625 76.8188 35.4074C76.8637 35.4523 76.8861 35.5099 76.8861 35.5805V36.2536C76.8861 36.3241 76.8637 36.3818 76.8188 36.4267C76.7739 36.4651 76.7162 36.4844 76.6457 36.4844H71.8473ZM77.5881 36.4844C77.5368 36.4844 77.4887 36.4651 77.4438 36.4267C77.4054 36.3882 77.3861 36.3401 77.3861 36.2824L77.4054 36.1959L79.7228 29.9935C79.7677 29.8333 79.8799 29.7531 80.0594 29.7531H81.1076C81.2742 29.7531 81.3864 29.8333 81.4441 29.9935L83.7616 36.1959C83.768 36.2151 83.7712 36.244 83.7712 36.2824C83.7712 36.3401 83.752 36.3882 83.7135 36.4267C83.675 36.4651 83.6302 36.4844 83.5789 36.4844H82.7423C82.6589 36.4844 82.5948 36.4651 82.55 36.4267C82.5051 36.3882 82.4762 36.3465 82.4634 36.3017L82.0115 35.1285H79.1555L78.7035 36.3017C78.6523 36.4235 78.5593 36.4844 78.4247 36.4844H77.5881ZM81.6749 34.0227L80.5787 31.0513L79.4921 34.0227H81.6749Z" fill="#F3F3F3"/>
<path d="M9.41218 79.272C4.7096 71.5679 2 62.5143 2 52.8278C2 24.7564 24.7564 2 52.8278 2C80.8992 2 103.656 24.7564 103.656 52.8278C103.656 62.5143 100.946 71.5679 96.2434 79.272" stroke="#F3F3F3" stroke-width="3.43431" stroke-linecap="round"/>
<path d="M8.28169 98.8994C6.29725 98.8994 5.30502 97.7942 5.30502 95.5836V90.61H3.83553C3.70993 90.61 3.60318 90.5723 3.51526 90.4969C3.4399 90.409 3.40222 90.3023 3.40222 90.1767V89.5361C3.40222 89.4105 3.4399 89.31 3.51526 89.2347C3.60318 89.1468 3.70993 89.1028 3.83553 89.1028H5.30502V85.9566C5.30502 85.831 5.3427 85.7305 5.41806 85.6551C5.50598 85.5672 5.61274 85.5233 5.73834 85.5233H6.6238C6.7494 85.5233 6.84987 85.5672 6.92523 85.6551C7.01315 85.7305 7.05711 85.831 7.05711 85.9566V89.1028H9.39323C9.51882 89.1028 9.6193 89.1468 9.69466 89.2347C9.78258 89.31 9.82654 89.4105 9.82654 89.5361V90.1767C9.82654 90.3023 9.78258 90.409 9.69466 90.4969C9.6193 90.5723 9.51882 90.61 9.39323 90.61H7.05711V95.4518C7.05711 96.0797 7.16387 96.557 7.37738 96.8836C7.5909 97.1976 7.94257 97.3546 8.4324 97.3546H9.58162C9.70722 97.3546 9.8077 97.3985 9.88306 97.4864C9.97098 97.5618 10.0149 97.6623 10.0149 97.7879V98.4661C10.0149 98.5917 9.97098 98.6985 9.88306 98.7864C9.8077 98.8617 9.70722 98.8994 9.58162 98.8994H8.28169ZM12.2498 98.8994C12.1242 98.8994 12.0174 98.8617 11.9295 98.7864C11.8542 98.6985 11.8165 98.5917 11.8165 98.4661V89.555C11.8165 89.4294 11.8542 89.3226 11.9295 89.2347C12.0174 89.1468 12.1242 89.1028 12.2498 89.1028H13.1164C13.242 89.1028 13.3488 89.1468 13.4367 89.2347C13.5246 89.3226 13.5686 89.4294 13.5686 89.555V90.3839C14.0835 89.5298 14.9627 89.1028 16.2061 89.1028H16.9409C17.0665 89.1028 17.1669 89.1468 17.2423 89.2347C17.3302 89.31 17.3742 89.4105 17.3742 89.5361V90.3085C17.3742 90.4341 17.3302 90.5346 17.2423 90.61C17.1669 90.6853 17.0665 90.723 16.9409 90.723H15.8105C15.1323 90.723 14.5985 90.924 14.2091 91.3259C13.8198 91.7152 13.6251 92.249 13.6251 92.9272V98.4661C13.6251 98.5917 13.5811 98.6985 13.4932 98.7864C13.4053 98.8617 13.2985 98.8994 13.1729 98.8994H12.2498ZM19.2559 87.2754C19.1303 87.2754 19.0236 87.2377 18.9357 87.1623C18.8603 87.0744 18.8226 86.9676 18.8226 86.842V85.8247C18.8226 85.6991 18.8603 85.5923 18.9357 85.5044C19.0236 85.4165 19.1303 85.3726 19.2559 85.3726H20.4428C20.5684 85.3726 20.6752 85.4165 20.7631 85.5044C20.851 85.5923 20.895 85.6991 20.895 85.8247V86.842C20.895 86.9676 20.851 87.0744 20.7631 87.1623C20.6752 87.2377 20.5684 87.2754 20.4428 87.2754H19.2559ZM19.4066 98.8994C19.281 98.8994 19.1743 98.8617 19.0864 98.7864C19.011 98.6985 18.9733 98.5917 18.9733 98.4661V89.5361C18.9733 89.4105 19.011 89.31 19.0864 89.2347C19.1743 89.1468 19.281 89.1028 19.4066 89.1028H20.3109C20.4365 89.1028 20.537 89.1468 20.6124 89.2347C20.7003 89.31 20.7443 89.4105 20.7443 89.5361V98.4661C20.7443 98.5917 20.7003 98.6985 20.6124 98.7864C20.537 98.8617 20.4365 98.8994 20.3109 98.8994H19.4066ZM23.9882 102.479C23.8626 102.479 23.7559 102.435 23.6679 102.347C23.5926 102.272 23.5549 102.171 23.5549 102.046V89.5361C23.5549 89.4105 23.5926 89.31 23.6679 89.2347C23.7559 89.1468 23.8626 89.1028 23.9882 89.1028H24.8548C24.9804 89.1028 25.0809 89.1468 25.1563 89.2347C25.2442 89.31 25.2881 89.4105 25.2881 89.5361V90.3651C25.9915 89.398 27.0214 88.9144 28.3778 88.9144C29.6966 88.9144 30.6826 89.3289 31.3357 90.1578C32.0013 90.9868 32.3593 92.0543 32.4095 93.3606C32.4221 93.4987 32.4284 93.7122 32.4284 94.0011C32.4284 94.29 32.4221 94.5035 32.4095 94.6417C32.3593 95.9353 32.0013 97.0029 31.3357 97.8444C30.67 98.6733 29.6841 99.0878 28.3778 99.0878C27.0716 99.0878 26.0543 98.6168 25.3258 97.6748V102.046C25.3258 102.171 25.2881 102.272 25.2128 102.347C25.1374 102.435 25.0369 102.479 24.9113 102.479H23.9882ZM27.9822 97.5618C28.874 97.5618 29.5208 97.2855 29.9227 96.7329C30.3372 96.1802 30.5632 95.4518 30.6009 94.5475C30.6135 94.4219 30.6198 94.2397 30.6198 94.0011C30.6198 91.6273 29.7406 90.4404 27.9822 90.4404C27.1156 90.4404 26.4625 90.7293 26.0229 91.307C25.5959 91.8722 25.3635 92.5505 25.3258 93.3417L25.307 94.0576L25.3258 94.7924C25.3509 95.5334 25.5896 96.1802 26.0417 96.7329C26.4939 97.2855 27.1407 97.5618 27.9822 97.5618ZM37.4906 99.0878C36.8752 99.0878 36.3037 98.9622 35.7762 98.711C35.2487 98.4598 34.828 98.1207 34.514 97.6937C34.2125 97.2541 34.0618 96.7705 34.0618 96.243C34.0618 95.4141 34.4009 94.7359 35.0792 94.2083C35.77 93.6683 36.6994 93.3166 37.8674 93.1533L40.6745 92.7577V92.2113C40.6745 90.9302 39.9398 90.2897 38.4703 90.2897C37.9177 90.2897 37.4655 90.409 37.1138 90.6477C36.7622 90.8737 36.4984 91.1438 36.3226 91.4578C36.2849 91.5708 36.2347 91.6524 36.1719 91.7027C36.1216 91.7529 36.0463 91.778 35.9458 91.778H35.1357C35.0226 91.778 34.9222 91.7403 34.8342 91.665C34.7589 91.5771 34.7212 91.4766 34.7212 91.3636C34.7338 91.0621 34.8719 90.723 35.1357 90.3462C35.412 89.9569 35.8328 89.624 36.3979 89.3477C36.9631 89.0588 37.6602 88.9144 38.4891 88.9144C39.8958 88.9144 40.9069 89.2472 41.5223 89.9129C42.1378 90.566 42.4455 91.3824 42.4455 92.3621V98.4661C42.4455 98.5917 42.4015 98.6985 42.3136 98.7864C42.2382 98.8617 42.1378 98.8994 42.0122 98.8994H41.1455C41.0199 98.8994 40.9132 98.8617 40.8253 98.7864C40.7499 98.6985 40.7122 98.5917 40.7122 98.4661V97.656C40.4359 98.0579 40.034 98.397 39.5065 98.6733C38.979 98.9497 38.307 99.0878 37.4906 99.0878ZM37.8863 97.6748C38.7027 97.6748 39.3683 97.4111 39.8833 96.8836C40.4108 96.3435 40.6745 95.5711 40.6745 94.5663V94.0388L38.4891 94.3591C37.5974 94.4847 36.9254 94.6982 36.4733 94.9996C36.0211 95.2885 35.7951 95.659 35.7951 96.1111C35.7951 96.6135 36.0023 97.0029 36.4168 97.2792C36.8313 97.543 37.3211 97.6748 37.8863 97.6748ZM48.7333 99.0878C47.4271 99.0878 46.4412 98.6608 45.7755 97.8067C45.1099 96.9527 44.7582 95.8725 44.7205 94.5663L44.7017 94.0011L44.7205 93.4359C44.7582 92.1423 45.1099 91.0684 45.7755 90.2143C46.4412 89.3477 47.4271 88.9144 48.7333 88.9144C50.027 88.9144 51.0443 89.3728 51.7854 90.2897V85.9566C51.7854 85.831 51.823 85.7305 51.8984 85.6551C51.9863 85.5672 52.0931 85.5233 52.2187 85.5233H53.123C53.2486 85.5233 53.3491 85.5672 53.4244 85.6551C53.5123 85.7305 53.5563 85.831 53.5563 85.9566V98.4661C53.5563 98.5917 53.5123 98.6985 53.4244 98.7864C53.3491 98.8617 53.2486 98.8994 53.123 98.8994H52.2752C52.1496 98.8994 52.0428 98.8617 51.9549 98.7864C51.8796 98.6985 51.8419 98.5917 51.8419 98.4661V97.6748C51.1134 98.6168 50.0772 99.0878 48.7333 99.0878ZM49.129 97.5618C49.9956 97.5618 50.6424 97.2792 51.0695 96.714C51.5091 96.1363 51.7477 95.4518 51.7854 94.6605C51.7979 94.5223 51.8042 94.2837 51.8042 93.9446C51.8042 93.5929 51.7979 93.348 51.7854 93.2098C51.7602 92.4688 51.5216 91.822 51.0695 91.2694C50.6173 90.7167 49.9705 90.4404 49.129 90.4404C48.2372 90.4404 47.5841 90.7167 47.1697 91.2694C46.7677 91.822 46.5479 92.5505 46.5103 93.4548L46.4914 94.0011C46.4914 96.3749 47.3706 97.5618 49.129 97.5618ZM59.7682 98.8994C59.4417 98.8994 59.2093 98.7424 59.0712 98.4284L55.5858 89.6868L55.5481 89.4984C55.5481 89.3854 55.5858 89.2912 55.6612 89.2158C55.7365 89.1405 55.8307 89.1028 55.9438 89.1028H56.8481C57.0616 89.1028 57.2186 89.2096 57.3191 89.4231L60.1827 96.8459L63.0463 89.4231C63.1594 89.2096 63.3101 89.1028 63.4985 89.1028H64.4216C64.5221 89.1028 64.61 89.1405 64.6854 89.2158C64.7733 89.2912 64.8172 89.3854 64.8172 89.4984L64.7796 89.6868L61.2754 98.4284C61.1372 98.7424 60.9049 98.8994 60.5783 98.8994H59.7682ZM67.0726 87.2754C66.947 87.2754 66.8402 87.2377 66.7523 87.1623C66.6769 87.0744 66.6392 86.9676 66.6392 86.842V85.8247C66.6392 85.6991 66.6769 85.5923 66.7523 85.5044C66.8402 85.4165 66.947 85.3726 67.0726 85.3726H68.2595C68.3851 85.3726 68.4918 85.4165 68.5797 85.5044C68.6676 85.5923 68.7116 85.6991 68.7116 85.8247V86.842C68.7116 86.9676 68.6676 87.0744 68.5797 87.1623C68.4918 87.2377 68.3851 87.2754 68.2595 87.2754H67.0726ZM67.2233 98.8994C67.0977 98.8994 66.9909 98.8617 66.903 98.7864C66.8276 98.6985 66.79 98.5917 66.79 98.4661V89.5361C66.79 89.4105 66.8276 89.31 66.903 89.2347C66.9909 89.1468 67.0977 89.1028 67.2233 89.1028H68.1276C68.2532 89.1028 68.3537 89.1468 68.429 89.2347C68.5169 89.31 68.5609 89.4105 68.5609 89.5361V98.4661C68.5609 98.5917 68.5169 98.6985 68.429 98.7864C68.3537 98.8617 68.2532 98.8994 68.1276 98.8994H67.2233ZM74.7438 99.0878C73.8646 99.0878 73.1236 98.9497 72.5207 98.6733C71.9304 98.3845 71.4846 98.0579 71.1831 97.6937C70.8943 97.3294 70.7498 97.028 70.7498 96.7894C70.7498 96.6638 70.7938 96.5696 70.8817 96.5068C70.9822 96.4314 71.0827 96.3937 71.1831 96.3937H72.0309C72.1565 96.3937 72.2696 96.4565 72.37 96.5821C72.6715 96.9338 72.998 97.2101 73.3497 97.4111C73.7014 97.612 74.1724 97.7125 74.7627 97.7125C75.4158 97.7125 75.9433 97.5869 76.3452 97.3357C76.7597 97.072 76.9669 96.714 76.9669 96.2619C76.9669 95.9604 76.879 95.7155 76.7031 95.5271C76.5399 95.3262 76.251 95.1566 75.8365 95.0184C75.4346 94.8677 74.8317 94.7045 74.0279 94.5286C72.9352 94.29 72.1565 93.9446 71.6918 93.4924C71.2397 93.0403 71.0136 92.4563 71.0136 91.7403C71.0136 91.2631 71.1517 90.8109 71.428 90.3839C71.7169 89.9443 72.1314 89.5926 72.6715 89.3289C73.2241 89.0526 73.8835 88.9144 74.6496 88.9144C75.4535 88.9144 76.138 89.0463 76.7031 89.31C77.2683 89.5738 77.6891 89.8878 77.9654 90.252C78.2543 90.6037 78.3987 90.8988 78.3987 91.1375C78.3987 91.2505 78.3548 91.3447 78.2668 91.4201C78.1915 91.4954 78.0973 91.5331 77.9842 91.5331H77.193C77.0423 91.5331 76.9167 91.4703 76.8162 91.3447C76.6152 91.1061 76.4394 90.924 76.2887 90.7984C76.1505 90.6602 75.9433 90.5409 75.667 90.4404C75.4032 90.3399 75.0641 90.2897 74.6496 90.2897C74.0468 90.2897 73.582 90.4216 73.2555 90.6853C72.9289 90.9365 72.7657 91.2694 72.7657 91.6838C72.7657 91.9476 72.8347 92.1737 72.9729 92.3621C73.1111 92.5379 73.3748 92.7012 73.7642 92.8519C74.1661 93.0026 74.7438 93.1596 75.4974 93.3229C76.6906 93.5741 77.5321 93.9383 78.0219 94.4156C78.5243 94.8803 78.7755 95.4769 78.7755 96.2053C78.7755 96.7454 78.6185 97.2352 78.3045 97.6748C77.9905 98.1144 77.5258 98.4598 76.9104 98.711C76.3075 98.9622 75.5853 99.0878 74.7438 99.0878ZM84.9693 99.0878C83.5878 99.0878 82.5139 98.6985 81.7477 97.9198C80.9942 97.141 80.5922 96.1049 80.542 94.8112L80.5232 94.0011L80.542 93.191C80.5922 91.9099 81.0004 90.88 81.7666 90.1013C82.5327 89.31 83.6003 88.9144 84.9693 88.9144C86.3383 88.9144 87.4059 89.31 88.1721 90.1013C88.9382 90.88 89.3464 91.9099 89.3966 93.191C89.4092 93.3292 89.4155 93.5992 89.4155 94.0011C89.4155 94.403 89.4092 94.6731 89.3966 94.8112C89.3464 96.1049 88.9382 97.141 88.1721 97.9198C87.4185 98.6985 86.3509 99.0878 84.9693 99.0878ZM84.9693 97.6372C85.7606 97.6372 86.3823 97.386 86.8344 96.8836C87.2992 96.3812 87.5504 95.659 87.588 94.717C87.6006 94.5914 87.6069 94.3528 87.6069 94.0011C87.6069 93.6494 87.6006 93.4108 87.588 93.2852C87.5504 92.3432 87.2992 91.621 86.8344 91.1186C86.3823 90.6163 85.7606 90.3651 84.9693 90.3651C84.1781 90.3651 83.5501 90.6163 83.0854 91.1186C82.6206 91.621 82.3757 92.3432 82.3506 93.2852L82.3318 94.0011L82.3506 94.717C82.3757 95.659 82.6206 96.3812 83.0854 96.8836C83.5501 97.386 84.1781 97.6372 84.9693 97.6372ZM92.2079 98.8994C92.0823 98.8994 91.9755 98.8617 91.8876 98.7864C91.8122 98.6985 91.7746 98.5917 91.7746 98.4661V89.555C91.7746 89.4294 91.8122 89.3226 91.8876 89.2347C91.9755 89.1468 92.0823 89.1028 92.2079 89.1028H93.0745C93.2001 89.1028 93.3069 89.1468 93.3948 89.2347C93.4827 89.3226 93.5267 89.4294 93.5267 89.555V90.3839C94.0416 89.5298 94.9208 89.1028 96.1642 89.1028H96.8989C97.0245 89.1028 97.125 89.1468 97.2004 89.2347C97.2883 89.31 97.3323 89.4105 97.3323 89.5361V90.3085C97.3323 90.4341 97.2883 90.5346 97.2004 90.61C97.125 90.6853 97.0245 90.723 96.8989 90.723H95.7686C95.0903 90.723 94.5566 90.924 94.1672 91.3259C93.7778 91.7152 93.5832 92.249 93.5832 92.9272V98.4661C93.5832 98.5917 93.5392 98.6985 93.4513 98.7864C93.3634 98.8617 93.2566 98.8994 93.131 98.8994H92.2079Z" fill="#F3F3F3"/>
<path d="M101.319 90.3984C101.3 90.3984 101.284 90.3927 101.271 90.3813C101.259 90.368 101.254 90.3518 101.254 90.3328V88.4697C101.254 88.4488 101.259 88.4326 101.271 88.4212C101.284 88.4079 101.3 88.4013 101.319 88.4013H102.016C102.234 88.4013 102.405 88.4526 102.529 88.5553C102.653 88.658 102.715 88.8064 102.715 89.0004C102.715 89.145 102.678 89.2638 102.606 89.357C102.536 89.4503 102.436 89.5149 102.307 89.5511L102.746 90.31C102.752 90.3214 102.754 90.3319 102.754 90.3414C102.754 90.3566 102.748 90.3699 102.735 90.3813C102.723 90.3927 102.71 90.3984 102.695 90.3984H102.558C102.529 90.3984 102.506 90.3918 102.489 90.3785C102.474 90.3652 102.46 90.3461 102.446 90.3214L102.033 89.5967H101.533V90.3328C101.533 90.3518 101.527 90.368 101.513 90.3813C101.5 90.3927 101.484 90.3984 101.465 90.3984H101.319ZM102.004 89.3542C102.288 89.3542 102.429 89.2353 102.429 88.9976C102.429 88.7598 102.288 88.6409 102.004 88.6409H101.533V89.3542H102.004Z" fill="#F3F3F3"/>
<circle cx="101.94" cy="90.1416" r="1.90208" stroke="#F3F3F3" stroke-width="0.317013"/>
</svg>
